<?xml version="1.0" encoding="UTF-8"?>
<!DOCTYPE svg PUBLIC "-//W3C//DTD SVG 1.1//EN" "http://www.w3.org/Graphics/SVG/1.1/DTD/svg11.dtd">
<!-- Creator: CorelDRAW 2018 (64-Bit) -->
<svg xmlns="http://www.w3.org/2000/svg" xml:space="preserve" width="210mm" height="297mm" version="1.1" style="shape-rendering:geometricPrecision; text-rendering:geometricPrecision; image-rendering:optimizeQuality; fill-rule:evenodd; clip-rule:evenodd"
viewBox="0 0 21000 29700"
 xmlns:xlink="http://www.w3.org/1999/xlink">
 <defs>
  <style type="text/css">
   <![CDATA[
    .fil0 {fill:#FEFEFE}
   ]]>
  </style>
 </defs>
 <g id="Слой_x0020_1">
  <metadata id="CorelCorpID_0Corel-Layer"/>
  <g id="_887657952">
   <g>
    <g>
     <path class="fil0" d="M14933.97 9343.84l-2021.55 0 136.39 631.08c16.77,78.34 15.95,157 7.17,234.39l1445.18 0 0 10200.51 -8003.17 0 0 -10200.51 1445.61 0c-8.78,-77.81 -9.21,-156.47 7.54,-235.24l136.42 -630.24 -2021.9 0.01c-238.95,0 -432.33,193.78 -432.33,432.7l0 11066.01c0,238.55 193.38,432.7 432.33,432.7l8868.31 0c238.95,0 432.7,-194.23 432.7,-432.7l0 -11065.99c0.02,-238.94 -193.76,-432.72 -432.7,-432.72z"/>
     <path class="fil0" d="M13482.46 12471.5l-2955.66 0c-239.37,0 -432.73,193.78 -432.73,432.33 0,239.05 193.38,432.73 432.73,432.73l2955.66 0c239.37,0 432.7,-193.68 432.7,-432.73 0.06,-238.55 -193.33,-432.33 -432.7,-432.33z"/>
     <path class="fil0" d="M13482.46 15125.4l-2955.66 0c-239.37,0 -432.73,193.75 -432.73,432.7 0,238.68 193.38,432.78 432.73,432.78l2955.66 0c239.37,0 432.7,-194.2 432.7,-432.78 0.06,-238.94 -193.33,-432.7 -432.7,-432.7z"/>
     <path class="fil0" d="M7237.98 12573.18c-182.51,153.99 -206,426.96 -51.99,609.79l631.16 747.98c82.47,97.87 203.41,153.59 330.62,153.59 10.53,0 20.96,-0.42 31.83,-1.24 138.09,-10.03 263.23,-86.2 336.1,-204.23l1135.43 -1838.25c125.57,-203.41 62.84,-469.64 -140.55,-595.1 -203.41,-126.39 -469.64,-62.84 -595.23,140.57l-821.95 1330.14 -246.09 -291.36c-154.06,-182.83 -426.48,-206.3 -609.33,-51.89z"/>
     <path class="fil0" d="M8274.19 14909.5c-358.62,0 -649.16,290.46 -649.16,648.68 0,358.33 290.51,648.76 649.16,648.76 358.33,0 648.76,-290.43 648.76,-648.76 0,-358.27 -290.43,-648.68 -648.76,-648.68z"/>
     <path class="fil0" d="M13482.46 17721.1l-2955.66 0c-239.37,0 -432.73,193.38 -432.73,432.81 0,238.57 193.38,432.33 432.73,432.33l2955.66 -0.01c239.37,0 432.7,-193.75 432.7,-432.33 0.06,-239.44 -193.33,-432.8 -432.7,-432.8z"/>
     <path class="fil0" d="M8274.19 17505.2c-358.62,0 -649.16,290.43 -649.16,648.76 0,358.22 290.51,648.78 649.16,648.78 358.33,0 648.76,-290.49 648.76,-648.78 0,-358.33 -290.43,-648.76 -648.76,-648.76z"/>
     <path class="fil0" d="M8664.27 10425.32l3670.56 0c89.98,0 174.97,-40.24 231.4,-110.49 56.54,-69.56 78.34,-161.53 58.98,-249.5l-303.79 -1406.21c-29.69,-136.84 -150.6,-234.39 -290.46,-234.39l-3062.42 0c-139.73,0 -260.67,97.58 -290.43,234.39l-304.27 1406.21c-18.39,87.95 3.31,179.94 59.45,249.5 56.49,70.27 141.47,110.49 230.98,110.49z"/>
    </g>
   </g>
  </g>
  <g id="_887655904">
  </g>
  <g id="_887658848">
  </g>
  <g id="_887659552">
  </g>
  <g id="_887659104">
  </g>
  <g id="_887657600">
  </g>
  <g id="_887645760">
  </g>
  <g id="_887651392">
  </g>
  <g id="_887647744">
  </g>
  <g id="_887653728">
  </g>
  <g id="_887654208">
  </g>
  <g id="_887652896">
  </g>
  <g id="_887648064">
  </g>
  <g id="_887653664">
  </g>
  <g id="_887649184">
  </g>
  <g id="_887649824">
  </g>
 </g>
</svg>
