<?xml version="1.0" encoding="UTF-8"?>
<!DOCTYPE svg PUBLIC "-//W3C//DTD SVG 1.1//EN" "http://www.w3.org/Graphics/SVG/1.1/DTD/svg11.dtd">
<!-- Creator: CorelDRAW 2018 (64-Bit) -->
<svg xmlns="http://www.w3.org/2000/svg" xml:space="preserve" width="210mm" height="297mm" version="1.1" style="shape-rendering:geometricPrecision; text-rendering:geometricPrecision; image-rendering:optimizeQuality; fill-rule:evenodd; clip-rule:evenodd"
viewBox="0 0 21000 29700"
 xmlns:xlink="http://www.w3.org/1999/xlink">
 <defs>
  <style type="text/css">
   <![CDATA[
    .fil0 {fill:#FEFEFE}
   ]]>
  </style>
 </defs>
 <g id="Слой_x0020_1">
  <metadata id="CorelCorpID_0Corel-Layer"/>
  <g id="_892523312">
   <g>
    <path class="fil0" d="M19568.17 6259.07l-2386.36 0 0 -1431.78c0,-262.52 -214.77,-477.29 -477.24,-477.29l-14318.21 0c-263.44,0 -477.29,214.77 -477.29,477.29l0 1909.07 1431.83 0c525.96,0 954.54,428.57 954.54,954.54 0,527.85 -428.57,954.54 -954.54,954.54l-1431.83 -0.01 0 954.54 1431.83 0c525.96,0 954.54,428.57 954.54,954.54 0,527.85 -428.57,954.54 -954.54,954.54l-1431.83 -0.01 0 954.54 1431.83 -0.01c525.96,0 954.54,428.57 954.54,954.54 0,527.85 -428.57,954.54 -954.54,954.54l-1431.83 -0.01 0 954.54 1431.83 0c525.96,0 954.54,428.57 954.54,954.54 0,527.85 -428.57,954.54 -954.54,954.54l-1431.83 -0.01 0 954.54 1431.83 0c525.96,0 954.54,428.57 954.54,954.54 0,527.85 -428.57,954.54 -954.54,954.54l-1431.83 -0.01 0 954.54 1431.83 -0.01c525.96,0 954.54,428.57 954.54,954.54 0,527.85 -428.57,954.54 -954.54,954.54l-1431.83 -0.01 0 1909.07c0,263.44 213.8,477.29 477.29,477.29l14318.16 0c262.52,0 477.29,-213.8 477.29,-477.29l0 -2386.36 2386.36 0c262.52,0 477.29,-213.8 477.29,-477.29l0 -15272.52c0,-262.48 -214.77,-477.29 -477.29,-477.29zm-6204.54 6204.55c0,263.44 -214.77,477.29 -477.29,477.29l-5727.26 0c-263.44,0 -477.29,-213.8 -477.29,-477.29l0 -3818.14c0,-262.52 213.8,-477.29 477.29,-477.29l5727.26 0c262.52,0 477.29,214.77 477.29,477.29l0 3818.14zm5727.3 9068.19l-1909.07 0 0 -2863.65 1909.07 0 0 2863.65zm0 -3818.18l-1909.07 0 0 -2863.65 1909.07 0 0 2863.65zm0 -3818.19l-1909.07 0 0 -2863.65 1909.07 0 0 2863.65zm0 -3818.18l-1909.07 0 0 -2863.61 1909.07 0 0 2863.61zm-17659.1 -1909.07l1909.07 0c262.52,0 477.29,-214.77 477.29,-477.29 0,-262.52 -214.77,-477.29 -477.29,-477.29l-1909.07 0c-263.44,0 -477.29,214.77 -477.29,477.29 0,262.52 213.84,477.29 477.29,477.29zm0 2863.65l1909.07 0c262.52,0 477.29,-214.77 477.29,-477.29 0,-262.52 -214.77,-477.29 -477.29,-477.29l-1909.07 0c-263.44,0 -477.29,214.77 -477.29,477.29 0,262.52 213.84,477.29 477.29,477.29zm0 2863.6l1909.07 0c262.52,0 477.29,-214.77 477.29,-477.29 0,-262.52 -214.77,-477.29 -477.29,-477.29l-1909.07 0c-263.44,0 -477.29,214.77 -477.29,477.29 0,262.52 213.84,477.29 477.29,477.29zm0 2863.65l1909.07 0c262.52,0 477.29,-214.77 477.29,-477.29 0,-262.52 -214.77,-477.29 -477.29,-477.29l-1909.07 0c-263.44,0 -477.29,214.77 -477.29,477.29 0,262.52 213.84,477.29 477.29,477.29zm0 2863.65l1909.07 0c262.52,0 477.29,-214.77 477.29,-477.29 0,-262.52 -214.77,-477.29 -477.29,-477.29l-1909.07 0c-263.44,0 -477.29,214.77 -477.29,477.29 0,262.52 213.84,477.29 477.29,477.29zm2386.36 2386.36c0,-262.52 -214.77,-477.29 -477.29,-477.29l-1909.07 0c-263.44,0 -477.29,214.77 -477.29,477.29 0,262.52 213.8,477.29 477.29,477.29l1909.07 0c262.52,-0.04 477.29,-214.81 477.29,-477.29z"/>
   </g>
  </g>
  <g id="_892530320">
  </g>
  <g id="_892525680">
  </g>
  <g id="_892534000">
  </g>
  <g id="_892540464">
  </g>
  <g id="_892537456">
  </g>
  <g id="_892552656">
  </g>
  <g id="_892549232">
  </g>
  <g id="_892537936">
  </g>
  <g id="_892537584">
  </g>
  <g id="_892545680">
  </g>
  <g id="_892548016">
  </g>
  <g id="_892548368">
  </g>
  <g id="_892548496">
  </g>
  <g id="_892542416">
  </g>
  <g id="_892523120">
  </g>
 </g>
</svg>
