<?xml version="1.0" encoding="UTF-8"?>
<!DOCTYPE svg PUBLIC "-//W3C//DTD SVG 1.1//EN" "http://www.w3.org/Graphics/SVG/1.1/DTD/svg11.dtd">
<!-- Creator: CorelDRAW 2018 (64-Bit) -->
<svg xmlns="http://www.w3.org/2000/svg" xml:space="preserve" width="210mm" height="297mm" version="1.1" style="shape-rendering:geometricPrecision; text-rendering:geometricPrecision; image-rendering:optimizeQuality; fill-rule:evenodd; clip-rule:evenodd"
viewBox="0 0 21000 29700"
 xmlns:xlink="http://www.w3.org/1999/xlink">
 <defs>
  <style type="text/css">
   <![CDATA[
    .fil0 {fill:#FEFEFE}
   ]]>
  </style>
 </defs>
 <g id="Слой_x0020_1">
  <metadata id="CorelCorpID_0Corel-Layer"/>
  <g id="_892540624">
   <path class="fil0" d="M17390.63 4350l-13781.26 0c-904.64,0 -1640.62,735.98 -1640.62,1640.62l0 17718.75c0,904.64 735.98,1640.63 1640.63,1640.63l13781.25 0c904.64,0 1640.63,-735.98 1640.63,-1640.63l-0.01 -17718.75c0,-904.64 -735.98,-1640.62 -1640.62,-1640.62zm984.37 19359.38c0,542.76 -441.57,984.38 -984.38,984.38l-13781.25 -0.01c-542.8,0 -984.38,-441.62 -984.38,-984.38l0.01 -17718.75c0,-542.76 441.57,-984.38 984.38,-984.38l13781.25 0.01c542.8,0 984.38,441.62 984.38,984.38l-0.01 17718.75z"/>
   <path class="fil0" d="M8531.25 8615.62l5906.25 0c181.21,0 328.13,-146.92 328.13,-328.13 0,-181.21 -146.92,-328.13 -328.13,-328.13l-5906.25 0.01c-181.21,0 -328.13,146.92 -328.13,328.13 0,181.21 146.92,328.12 328.13,328.12z"/>
   <path class="fil0" d="M16734.38 9271.87l-8203.13 0c-181.21,0 -328.13,146.92 -328.13,328.13 0,181.21 146.92,328.13 328.13,328.13l8203.13 -0.01c181.21,0 328.13,-146.92 328.13,-328.13 0,-181.21 -146.93,-328.12 -328.13,-328.12z"/>
   <path class="fil0" d="M8531.25 11240.62l7218.75 0c181.21,0 328.13,-146.92 328.13,-328.13 0,-181.21 -146.92,-328.13 -328.13,-328.13l-7218.75 0.01c-181.21,0 -328.13,146.92 -328.13,328.13 0,181.21 146.92,328.12 328.13,328.12z"/>
   <path class="fil0" d="M6890.62 18459.38l-2625 0c-181.21,0 -328.13,146.92 -328.13,328.13l0 2625c0,181.21 146.92,328.13 328.13,328.13l2625 -0.01c181.21,0 328.13,-146.92 328.13,-328.13l0 -2625c0,-181.21 -146.92,-328.12 -328.13,-328.12zm-328.12 2625l-1968.75 0 0 -1968.75 1968.75 0 0 1968.75z"/>
   <path class="fil0" d="M8531.25 19115.63l5906.25 0c181.21,0 328.13,-146.92 328.13,-328.13 0,-181.21 -146.92,-328.13 -328.13,-328.13l-5906.25 0.01c-181.21,0 -328.13,146.92 -328.13,328.13 0,181.21 146.92,328.12 328.13,328.12z"/>
   <path class="fil0" d="M16734.38 19771.88l-8203.13 0c-181.21,0 -328.13,146.92 -328.13,328.13 0,181.21 146.92,328.13 328.13,328.13l8203.13 -0.01c181.21,0 328.13,-146.92 328.13,-328.13 0,-181.21 -146.93,-328.12 -328.13,-328.12z"/>
   <path class="fil0" d="M15750 21084.38l-7218.75 0c-181.21,0 -328.13,146.92 -328.13,328.13 0,181.21 146.92,328.13 328.13,328.13l7218.75 -0.01c181.21,0 328.13,-146.92 328.13,-328.13 0,-181.21 -146.92,-328.12 -328.13,-328.12z"/>
   <path class="fil0" d="M6890.62 13209.37l-2625 0c-181.21,0 -328.13,146.92 -328.13,328.13l0 2625c0,181.21 146.92,328.13 328.13,328.13l2625 0c181.21,0 328.13,-146.92 328.13,-328.13l0 -2625c0,-181.21 -146.92,-328.13 -328.13,-328.13zm-328.12 2625.01l-1968.75 0 0 -1968.75 1968.75 -0.01 0 1968.76z"/>
   <path class="fil0" d="M8531.25 13865.62l5906.25 0c181.21,0 328.13,-146.92 328.13,-328.13 0,-181.21 -146.92,-328.13 -328.13,-328.13l-5906.25 0.01c-181.21,0 -328.13,146.92 -328.13,328.13 0,181.21 146.92,328.12 328.13,328.12z"/>
   <path class="fil0" d="M16734.38 14521.87l-8203.13 0c-181.21,0 -328.13,146.92 -328.13,328.13 0,181.21 146.92,328.13 328.13,328.13l8203.13 0c181.21,0 328.13,-146.92 328.13,-328.13 0,-181.21 -146.93,-328.13 -328.13,-328.13z"/>
   <path class="fil0" d="M8531.25 16490.63l7218.75 0c181.21,0 328.13,-146.92 328.13,-328.13 0,-181.21 -146.92,-328.13 -328.13,-328.13l-7218.75 0.01c-181.21,0 -328.13,146.92 -328.13,328.13 0,181.21 146.92,328.12 328.13,328.12z"/>
   <path class="fil0" d="M7314.85 7399.22l-560.15 560.15 -1504.7 0c-181.21,0 -328.13,146.92 -328.13,328.13 0,181.21 146.92,328.13 328.13,328.13l848.45 -0.01 -848.45 848.45 -1080.47 -1080.47c-128.13,-128.09 -335.88,-128.09 -464.01,0 -128.17,128.17 -128.17,335.88 0,464.05l231.98 232.03 0 1832.82c0,181.21 146.92,328.13 328.13,328.13l2624.99 -0.01c181.21,0 328.13,-146.92 328.13,-328.13l0 -984.46c0,-181.21 -146.92,-328.13 -328.13,-328.13 -181.21,0 -328.13,146.92 -328.13,328.13l0.01 656.34 -1968.75 0 0 -848.45 424.22 424.22c64.07,64.07 148.03,96.1 232.03,96.1 84,0 167.96,-32.03 232.03,-96.1l2296.88 -2296.88c128.17,-128.17 128.17,-335.88 0,-464.05 -128.14,-128.08 -335.93,-128.08 -464.06,0.01z"/>
  </g>
  <g id="_892534160">
  </g>
  <g id="_892542224">
  </g>
  <g id="_892545136">
  </g>
  <g id="_892552976">
  </g>
  <g id="_892523280">
  </g>
  <g id="_892538320">
  </g>
  <g id="_892538960">
  </g>
  <g id="_892527632">
  </g>
  <g id="_892532816">
  </g>
  <g id="_892543344">
  </g>
  <g id="_892541616">
  </g>
  <g id="_892524944">
  </g>
  <g id="_892554672">
  </g>
  <g id="_892532048">
  </g>
  <g id="_892544112">
  </g>
 </g>
</svg>
