<svg xmlns="http://www.w3.org/2000/svg" viewBox="0 0 170.079 120.971">
    <defs>
        <style>.cls-1,.cls-2{fill:#ffffff;}.cls-1,.cls-3{opacity:1;}</style>
    </defs>
    <g id="Ebene_1" data-name="Ebene 1">
        <polygon class="cls-1"
                 points="109.605 95.273 109.605 99.673 39.214 99.673 39.214 46.879 43.615 46.879 43.615 95.273 109.605 95.273"/>
        <rect class="cls-1" x="52.413" y="73.276" width="8.798" height="17.597"/>
        <rect class="cls-1" x="65.611" y="55.677" width="8.798" height="35.195"/>
        <rect class="cls-1" x="78.81" y="64.478" width="8.798" height="26.395"/>
        <rect class="cls-1" x="92.008" y="51.279" width="8.798" height="39.593"/>
        <path class="cls-2"
              d="M165.143,116.035a16.184,16.184,0,0,0,4.936-11.867V16.8a16.181,16.181,0,0,0-4.936-11.867A16.176,16.176,0,0,0,153.276,0H16.8A16.172,16.172,0,0,0,4.936,4.936,16.172,16.172,0,0,0,0,16.8v87.365a16.176,16.176,0,0,0,4.936,11.867A16.181,16.181,0,0,0,16.8,120.971H153.276a16.184,16.184,0,0,0,11.867-4.936m-137.262-9.5a3.232,3.232,0,0,1-1-2.364V16.8a3.409,3.409,0,0,1,3.361-3.361H153.276a3.4,3.4,0,0,1,3.361,3.361v87.365a3.4,3.4,0,0,1-3.361,3.361H30.243a3.227,3.227,0,0,1-2.361-1M6.721,60.486a6.444,6.444,0,0,1,2-4.725,6.59,6.59,0,0,1,9.45,0,6.59,6.59,0,0,1,0,9.45,6.59,6.59,0,0,1-9.45,0,6.451,6.451,0,0,1-2-4.725"/>
        <path class="cls-1"
              d="M127.738,72.082l9.841,9.841a13.879,13.879,0,0,1-16.789,2.254,13.779,13.779,0,0,1-5.038-5.038,13.942,13.942,0,0,1,0-13.9,13.789,13.789,0,0,1,5.038-5.036,13.542,13.542,0,0,1,6.948-1.857Z"/>
        <path class="cls-1"
              d="M143.889,69.883H130.046V56.043a13.555,13.555,0,0,1,6.948,1.855,13.779,13.779,0,0,1,5.038,5.038A13.542,13.542,0,0,1,143.889,69.883Z"/>
        <path class="cls-1" d="M131.11,72.191h13.931a13.755,13.755,0,0,1-4.109,9.841Z"/>
        <g class="cls-3">
            <path class="cls-2"
                  d="M133.189,25.818a1.243,1.243,0,0,0-.688-.187H114.878a1.245,1.245,0,0,0-.69.187.528.528,0,0,0-.29.44v1.255a.526.526,0,0,0,.29.44,1.245,1.245,0,0,0,.69.187H132.5a1.243,1.243,0,0,0,.688-.187.524.524,0,0,0,.292-.44V26.258a.527.527,0,0,0-.292-.44m5.877,3.764a1.251,1.251,0,0,0-.69-.187h-23.5a1.245,1.245,0,0,0-.69.187.528.528,0,0,0-.29.44v1.255a.532.532,0,0,0,.29.443,1.262,1.262,0,0,0,.69.185h23.5a1.268,1.268,0,0,0,.69-.185.532.532,0,0,0,.29-.443V30.023a.528.528,0,0,0-.29-.44m-3.917,3.764a1.245,1.245,0,0,0-.69-.187H114.878a1.245,1.245,0,0,0-.69.187.528.528,0,0,0-.29.44v1.255a.532.532,0,0,0,.29.443,1.262,1.262,0,0,0,.69.185h19.581a1.262,1.262,0,0,0,.69-.185.532.532,0,0,0,.29-.443V33.787a.528.528,0,0,0-.29-.44m5.874,3.764a1.243,1.243,0,0,0-.688-.187H114.878a1.245,1.245,0,0,0-.69.187.528.528,0,0,0-.29.44v1.255a.532.532,0,0,0,.29.443,1.262,1.262,0,0,0,.69.185h25.458a1.26,1.26,0,0,0,.688-.185.532.532,0,0,0,.29-.443V37.552a.528.528,0,0,0-.29-.44"/>
        </g>
        <g class="cls-3">
            <path class="cls-2"
                  d="M48.588,39.269a6.791,6.791,0,0,1-3.559.818c-2.688,0-4.43-.743-5.787-2.51a10.521,10.521,0,0,1-2.048-6.606c0-3.842,1.458-6.914,4.02-8.322a7.894,7.894,0,0,1,3.687-.871c4.738,0,7.657,3.456,7.657,9.04C52.558,34.839,51.175,37.861,48.588,39.269ZM47.973,26.8a3.216,3.216,0,0,0-3.122-2.254,3.1,3.1,0,0,0-2.766,1.561,10.36,10.36,0,0,0-.9,4.866c0,3.072.512,4.994,1.586,5.762a3.543,3.543,0,0,0,2.126.615c2.484,0,3.534-1.9,3.534-6.427A14.213,14.213,0,0,0,47.973,26.8Z"/>
            <path class="cls-2" d="M54.765,39.806V22.01H64.9l-.46,2.919h-6.1v4.123h5.1v2.919H58.4v4.763h6.734v3.072Z"/>
            <path class="cls-2"
                  d="M66.8,39.806V22.01H76.942l-.46,2.919h-6.1v4.123h5.1v2.919H70.439v4.763h6.734v3.072Z"/>
        </g>
    </g>
</svg>