<svg xmlns="http://www.w3.org/2000/svg" xmlns:xlink="http://www.w3.org/1999/xlink" version="1.1" viewBox="0 0 100 100" fill="#ffffff"><rect x="44.304" y="15.919" width="23.262" height="2.091"/><rect x="2.875" y="48.77" width="15.792" height="2.914"/><path d="M24.161,67.514c-2.191,0-3.975-1.783-3.975-3.975V53.203V47.25V36.916c0-2.192,1.783-3.974,3.975-3.974h4.093v34.572H24.161  z"/><path d="M76.05,81.258c1.716,0,3.155,1.211,3.505,2.824H32.313c0.35-1.613,1.788-2.824,3.504-2.824c2.557,0,4.682-1.893,5.05-4.348  H71C71.368,79.365,73.492,81.258,76.05,81.258z"/><rect x="40.924" y="72.482" width="30.021" height="2.908"/><path d="M68.034,29.492H43.833H29.774v1.929v37.613v1.93h9.629h33.06h9.63V29.492H68.034z M77.189,67.355H34.677  c-0.996,0-1.806-0.807-1.806-1.805s0.81-1.807,1.806-1.807h42.513c0.996,0,1.806,0.809,1.806,1.807S78.186,67.355,77.189,67.355z   M77.189,59.701H34.677c-0.996,0-1.806-0.809-1.806-1.807s0.81-1.807,1.806-1.807h42.513c0.996,0,1.806,0.809,1.806,1.807  S78.186,59.701,77.189,59.701z M77.189,52.033H34.677c-0.996,0-1.806-0.809-1.806-1.806c0-0.998,0.81-1.806,1.806-1.806h42.513  c0.996,0,1.806,0.808,1.806,1.806C78.995,51.225,78.186,52.033,77.189,52.033z M77.189,44.367H34.677  c-0.996,0-1.806-0.81-1.806-1.807c0-0.998,0.81-1.806,1.806-1.806h42.513c0.996,0,1.806,0.809,1.806,1.806  C78.995,43.557,78.186,44.367,77.189,44.367z M77.189,36.711H34.677c-0.996,0-1.806-0.809-1.806-1.807  c0-0.998,0.81-1.806,1.806-1.806h42.513c0.996,0,1.806,0.809,1.806,1.806C78.995,35.903,78.186,36.711,77.189,36.711z"/><path d="M91.805,26.179h-8.19v1.792v44.511v1.793h8.19c2.934,0,5.32-2.064,5.32-4.604V30.783  C97.125,28.244,94.738,26.179,91.805,26.179z M94.026,70.287h-7.315c-0.498,0-0.902-0.404-0.902-0.904  c0-0.498,0.404-0.902,0.902-0.902h7.315c0.499,0,0.902,0.404,0.902,0.902C94.929,69.883,94.525,70.287,94.026,70.287z   M94.026,65.439h-7.315c-0.498,0-0.902-0.404-0.902-0.902s0.404-0.904,0.902-0.904h7.315c0.499,0,0.902,0.406,0.902,0.904  S94.525,65.439,94.026,65.439z M94.026,60.594h-7.315c-0.498,0-0.902-0.404-0.902-0.902c0-0.5,0.404-0.902,0.902-0.902h7.315  c0.499,0,0.902,0.402,0.902,0.902C94.929,60.189,94.525,60.594,94.026,60.594z"/><path d="M45.354,19.531v8.441h21.161v-8.441H45.354z M51.18,25.861c-1.166,0-2.11-0.945-2.11-2.112c0-1.166,0.944-2.11,2.11-2.11  s2.111,0.944,2.111,2.11C53.291,24.917,52.346,25.861,51.18,25.861z M60.687,25.861c-1.165,0-2.11-0.945-2.11-2.112  c0-1.166,0.945-2.11,2.11-2.11c1.167,0,2.112,0.944,2.112,2.11C62.799,24.917,61.854,25.861,60.687,25.861z"/></svg>