<?xml version="1.0" encoding="UTF-8"?>
<!DOCTYPE svg PUBLIC "-//W3C//DTD SVG 1.1//EN" "http://www.w3.org/Graphics/SVG/1.1/DTD/svg11.dtd">
<!-- Creator: CorelDRAW 2018 (64-Bit) -->
<svg xmlns="http://www.w3.org/2000/svg" xml:space="preserve" width="210mm" height="297mm" version="1.1" style="shape-rendering:geometricPrecision; text-rendering:geometricPrecision; image-rendering:optimizeQuality; fill-rule:evenodd; clip-rule:evenodd"
viewBox="0 0 21000 29700"
 xmlns:xlink="http://www.w3.org/1999/xlink">
 <defs>
  <style type="text/css">
   <![CDATA[
    .fil0 {fill:#FEFEFE}
   ]]>
  </style>
 </defs>
 <g id="Слой_x0020_1">
  <metadata id="CorelCorpID_0Corel-Layer"/>
  <g id="_746840624">
   <path class="fil0" d="M18260.03 9848.13l-1770.17 -2220.81c-167.19,-209.79 -420.85,-332 -689.16,-332l-9149.05 0.01c-268.26,0 -521.92,122.21 -689.13,331.97l-1770.14 2220.83c-184.92,232.01 -336.23,664.58 -336.23,991.13l0 1626.71c140.6,-221.19 346.1,-387.22 592.53,-472.15 13.78,-185.9 70.14,-366.18 166.53,-530.36 166.98,-284.43 434.84,-486.67 754.12,-569.73 114.46,-29.9 219.26,-43.44 324.04,-43.44 422.14,0 804.68,214.74 1028.67,552.08 66.7,-11.62 134.01,-17.65 201.59,-17.65 207.27,0 403.15,56.99 573.78,155.2l980.52 -255.03c122.87,-32.07 249.13,-48.18 375.66,-48.18 678.15,0 1270.93,458.71 1441.77,1115.59l1921.59 7385.45c100.25,385.31 44.32,786.58 -157.08,1129.98 -201.61,343.4 -524.99,587.59 -910.33,687.86l-857.59 223.07 7202.69 0.01c608.41,0 1101.62,-493.21 1101.62,-1101.59l-0.02 -9867.66c0,-296.71 -151.29,-729.28 -336.21,-961.29zm-13489.2 -18.78l586.21 -735.46 3999.6 -0.01 394.68 -648.92 -3877.02 0.01 432.78 -542.98c84.08,-105.49 209.68,-166 344.57,-166l9149.08 0c134.91,0 260.51,60.51 344.57,166l432.78 542.98 -3946.08 0 220.32 648.92 4243.02 -0.01 586.18 735.46 -12910.69 0.01zm178.81 2713.51l-247.25 64.32c-263.34,68.53 -421.3,337.56 -352.8,600.9l2.51 9.63c68.53,263.37 337.56,421.3 600.92,352.8l2096.88 -545.52c263.37,-68.5 421.3,-337.53 352.8,-600.92l-2.51 -9.63c-68.53,-263.34 -337.56,-421.3 -600.9,-352.8l-247.25 64.32c-132.11,34.37 -267.1,-44.87 -301.47,-176.98l-2.12 -8.04c-79.82,-306.81 -393.22,-490.83 -700.03,-411l-12.83 3.33c-306.81,79.82 -490.8,393.22 -411,700.03l2.12 8.04c34.3,132.19 -44.94,267.15 -177.07,301.52zm675.88 -690.06c133.01,-34.61 268.9,45.19 303.48,178.17 34.61,133.01 -45.16,268.9 -178.2,303.48 -133.01,34.58 -268.87,-45.19 -303.48,-178.17 -34.58,-133.01 45.19,-268.9 178.2,-303.48zm3090.28 7595.79c23.07,88.69 -30.11,179.26 -118.77,202.33l-3050.62 793.59c-88.66,23.07 -179.26,-30.14 -202.33,-118.8l-41.78 -160.52c-23.07,-88.71 30.11,-179.28 118.8,-202.33l3050.59 -793.59c88.69,-23.07 179.26,30.14 202.33,118.77l41.78 160.55zm372.05 -3182.41l41.78 160.55c23.07,88.69 -30.11,179.26 -118.8,202.3l-4174.49 1086.04c-88.69,23.07 -179.26,-30.14 -202.33,-118.77l-41.78 -160.58c-23.07,-88.69 30.11,-179.26 118.8,-202.3l4174.49 -1085.98c88.69,-23.1 179.26,30.05 202.33,118.74zm-452.94 -1082.12l-4174.49 1085.99c-88.69,23.05 -179.26,-30.14 -202.33,-118.8l-41.78 -160.55c-23.07,-88.69 30.11,-179.23 118.8,-202.3l4174.49 -1085.98c88.69,-23.07 179.26,30.11 202.33,118.77l41.78 160.58c23.07,88.63 -30.11,179.22 -118.8,202.29zm-92.71 2938.31l-3371.72 877.15c-88.69,23.05 -179.26,-30.14 -202.33,-118.8l-41.78 -160.55c-23.07,-88.69 30.11,-179.26 118.8,-202.33l3371.69 -877.09c88.69,-23.1 179.26,30.11 202.33,118.77l41.78 160.55c23.1,88.66 -30.08,179.25 -118.77,202.3zm3034.88 1781.83l-1921.35 -7385.66c-115.33,-443.36 -568.27,-709.27 -1011.63,-593.94l-979.06 254.71c23.15,47.81 42.36,98.29 56.25,151.58 116.97,449.69 -147.85,900.77 -587.9,1015.26l-2066.05 537.47c-421.75,109.72 -875.85,-107.45 -1017.43,-519.59 -26.67,-77.63 -41.09,-155.65 -45.22,-232.52l-980.07 254.98c-443.36,115.33 -709.27,568.27 -593.94,1011.61l1921.35 7385.66c115.36,443.39 568.27,709.3 1011.63,593.94l5619.54 -1461.9c443.33,-115.32 709.24,-568.23 593.88,-1011.6zm-6422.28 1670.74l-1670.74 -6422.28 5619.51 -1461.9 1670.76 6422.28 -5619.53 1461.9z"/>
  </g>
  <g id="_746842256">
  </g>
  <g id="_746841872">
  </g>
  <g id="_746839504">
  </g>
  <g id="_746836464">
  </g>
  <g id="_746835632">
  </g>
  <g id="_746839920">
  </g>
  <g id="_746838832">
  </g>
  <g id="_746828688">
  </g>
  <g id="_746835824">
  </g>
  <g id="_746834864">
  </g>
  <g id="_746836912">
  </g>
  <g id="_746830512">
  </g>
  <g id="_746837424">
  </g>
  <g id="_746830224">
  </g>
  <g id="_746837008">
  </g>
 </g>
</svg>
