<?xml version="1.0" encoding="utf-8"?>

<!DOCTYPE svg PUBLIC "-//W3C//DTD SVG 1.1//EN" "http://www.w3.org/Graphics/SVG/1.1/DTD/svg11.dtd">
<svg version="1.1" xmlns="http://www.w3.org/2000/svg" xmlns:xlink="http://www.w3.org/1999/xlink" x="0px" y="0px" width="450px"
	 height="279px" viewBox="0 0 450 279" enable-background="new 0 0 450 279" xml:space="preserve">
<g id="Layer_1">

	<line fill="none" stroke="#ffffff" stroke-width="6" stroke-miterlimit="10" x1="9" y1="217" x2="81" y2="172" opacity=".65">
		
	</line>

	<line fill="none" stroke="#ffffff" stroke-width="6" stroke-miterlimit="10" x1="81" y1="172" x2="153" y2="181" opacity=".65">
		
	</line>

	<line fill="none" stroke="#ffffff" stroke-width="6" stroke-miterlimit="10" x1="153" y1="181" x2="225" y2="145" opacity=".65">
		
	</line>

	<line fill="none" stroke="#ffffff" stroke-width="6" stroke-miterlimit="10" x1="225" y1="145" x2="297" y2="55" opacity=".65">
		
	</line>

	<line fill="none" stroke="#ffffff" stroke-width="6" stroke-miterlimit="10" x1="297" y1="55" x2="369" y2="72" opacity=".65">
		
	</line>

	<line fill="none" stroke="#ffffff" stroke-width="6" stroke-miterlimit="10" x1="369" y1="72" x2="441" y2="45" opacity=".65">
		
	</line>

	<circle fill="#FFFFFF" stroke="#ffffff" stroke-width="6" stroke-miterlimit="10" cx="9" cy="217" r="6">
		
	</circle>

	<circle fill="#FFFFFF" stroke="#ffffff" stroke-width="6" stroke-miterlimit="10" cx="81" cy="172" r="6">
		
	</circle>

	<circle fill="#FFFFFF" stroke="#ffffff" stroke-width="6" stroke-miterlimit="10" cx="153" cy="181" r="6">
		
	</circle>

	<circle fill="#FFFFFF" stroke="#ffffff" stroke-width="6" stroke-miterlimit="10" cx="225" cy="145" r="6">
		
	</circle>

	<circle fill="#FFFFFF" stroke="#ffffff" stroke-width="6" stroke-miterlimit="10" cx="297" cy="55" r="6">
		
	</circle>

	<circle fill="#FFFFFF" stroke="#ffffff" stroke-width="6" stroke-miterlimit="10" cx="369" cy="72" r="6">
		
	</circle>

	<circle fill="#FFFFFF" stroke="#ffffff" stroke-width="6" stroke-miterlimit="10" cx="441" cy="45" r="6">
		
	</circle>
</g>


<g id="Layer_2">
	<line fill="none" stroke="#ffffff" stroke-width="6" stroke-miterlimit="10" x1="9" y1="181" x2="81" y2="208" opacity=".65">
		
	</line>

	<line fill="none" stroke="#ffffff" stroke-width="6" stroke-miterlimit="10" x1="81" y1="208" x2="153" y2="127" opacity=".65">
		
	</line>

	<line fill="none" stroke="#ffffff" stroke-width="6" stroke-miterlimit="10" x1="153" y1="127" x2="225" y2="82" opacity=".65">
		
	</line>

	<line fill="none" stroke="#ffffff" stroke-width="6" stroke-miterlimit="10" x1="225" y1="82" x2="297" y2="118" opacity=".65">
		
	</line>

	<line fill="none" stroke="#ffffff" stroke-width="6" stroke-miterlimit="10" x1="297" y1="118" x2="369" y2="45" opacity=".65">
		
	</line>

	<line fill="none" stroke="#ffffff" stroke-width="6" stroke-miterlimit="10" x1="369" y1="45" x2="441" y2="36" opacity=".65">
		
	</line>

	<circle fill="#FFFFFF" stroke="#ffffff" stroke-width="6" stroke-miterlimit="10" cx="9" cy="181" r="6">
		
	</circle>

	<circle fill="#FFFFFF" stroke="#ffffff" stroke-width="6" stroke-miterlimit="10" cx="81" cy="208" r="6">
		
	</circle>

	<circle fill="#FFFFFF" stroke="#ffffff" stroke-width="6" stroke-miterlimit="10" cx="153" cy="127" r="6">
		
	</circle>

	<circle fill="#FFFFFF" stroke="#ffffff" stroke-width="6" stroke-miterlimit="10" cx="225" cy="82" r="6">
		
	</circle>

	<circle fill="#FFFFFF" stroke="#ffffff" stroke-width="6" stroke-miterlimit="10" cx="297" cy="118" r="6">
		
	</circle>

	<circle fill="#FFFFFF" stroke="#ffffff" stroke-width="6" stroke-miterlimit="10" cx="369" cy="45" r="6">
		
	</circle>

	<circle fill="#FFFFFF" stroke="#ffffff" stroke-width="6" stroke-miterlimit="10" cx="441" cy="36" r="6">
		
	</circle>
</g>
</svg>
