<?xml version="1.0" encoding="UTF-8"?>
<!DOCTYPE svg PUBLIC "-//W3C//DTD SVG 1.1//EN" "http://www.w3.org/Graphics/SVG/1.1/DTD/svg11.dtd">
<!-- Creator: CorelDRAW 2018 (64-Bit) -->
<svg xmlns="http://www.w3.org/2000/svg" xml:space="preserve" width="210mm" height="297mm" version="1.1" style="shape-rendering:geometricPrecision; text-rendering:geometricPrecision; image-rendering:optimizeQuality; fill-rule:evenodd; clip-rule:evenodd"
viewBox="0 0 21000 29700"
 xmlns:xlink="http://www.w3.org/1999/xlink">
 <defs>
  <style type="text/css">
   <![CDATA[
    .fil0 {fill:#FEFEFE}
   ]]>
  </style>
 </defs>
 <g id="Слой_x0020_1">
  <metadata id="CorelCorpID_0Corel-Layer"/>
  <g id="_892551632">
   <g>
    <g>
     <path class="fil0" d="M14120.32 12778.79l0 -1018.42c0,-214.86 -94.54,-421.12 -262.12,-558.62 -919.58,-756.29 -1916.51,-1259.05 -2118.48,-1357.89 -21.49,-12.89 -38.67,-34.38 -38.67,-60.16l0 -1435.24c180.48,-120.32 300.8,-326.58 300.8,-558.62l0 -1486.8c0,-739.1 -601.6,-1340.7 -1340.7,-1340.7l-159 0 -158.99 0c-739.1,0 -1340.7,601.6 -1340.7,1340.7l0 1486.8c0,232.04 120.32,438.31 300.8,558.62l0 1435.24c0,25.78 -12.89,47.27 -38.67,60.16 -201.96,98.83 -1194.6,601.6 -2118.48,1357.89 -167.59,137.51 -262.12,339.47 -262.12,558.62l0 1018.42 3618.16 0 3618.17 0z"/>
    </g>
    <g>
     <path class="fil0" d="M20737.88 23160.62c-919.58,-756.29 -1916.51,-1259.05 -2118.48,-1357.89 -21.49,-12.89 -38.67,-34.38 -38.67,-60.16l0 -1435.24c180.48,-120.32 300.8,-326.58 300.8,-558.62l0 -1486.8c0,-739.1 -601.6,-1340.7 -1340.7,-1340.7l-159 0 -158.99 0c-739.1,0 -1340.7,601.6 -1340.7,1340.7l0 1486.8c0,232.04 120.32,438.31 300.8,558.62l0 1435.24c0,25.78 -12.89,47.27 -38.67,60.16 -201.96,98.83 -1194.6,601.6 -2118.48,1357.89 -167.59,137.51 -262.12,339.47 -262.12,558.62l0 1018.42 3618.16 0 3618.17 0 0 -1018.42c0,-219.15 -94.54,-421.11 -262.12,-558.62z"/>
    </g>
    <g>
     <path class="fil0" d="M6974.22 23160.62c-919.58,-756.29 -1916.51,-1259.05 -2118.48,-1357.89 -21.49,-12.89 -38.67,-34.38 -38.67,-60.16l0 -1435.24c180.48,-120.32 300.8,-326.58 300.8,-558.62l0 -1486.8c0,-739.1 -601.6,-1340.7 -1340.7,-1340.7l-159 0 -158.99 0c-739.1,0 -1340.7,601.6 -1340.7,1340.7l0 1486.8c0,232.04 120.32,438.31 300.8,558.62l0 1435.24c0,25.78 -12.89,47.27 -38.67,60.16 -201.96,98.83 -1194.6,601.6 -2118.48,1357.89 -167.59,137.51 -262.12,339.47 -262.12,558.62l0 1018.42 3618.16 0 3618.17 0 0 -1018.42c0,-219.15 -94.54,-421.11 -262.12,-558.62z"/>
    </g>
    <g>
     <path class="fil0" d="M13398.4 17638.83l-408.22 0c-64.46,-335.17 -197.67,-657.46 -395.33,-949.66l287.91 -287.91c103.13,-103.13 103.13,-275.02 0,-378.15l-292.2 -292.2c-103.13,-103.13 -275.02,-103.13 -378.15,0l-287.91 287.91c-292.2,-197.67 -614.49,-330.88 -949.66,-395.33l0 -408.23c0,-146.1 -120.32,-266.42 -266.42,-266.42l-412.53 -0.01c-146.1,0 -266.42,120.32 -266.42,266.42l0 403.93c-335.17,64.46 -661.76,193.37 -953.96,395.33l-283.61 -283.61c-103.13,-103.13 -275.02,-103.13 -378.15,0l-292.2 292.2c-103.13,103.13 -103.13,275.02 0,378.15l283.61 283.61c-201.96,292.2 -335.17,618.78 -399.63,958.26l-395.34 0c-146.1,0 -266.42,120.32 -266.42,266.42l0 412.52c0,146.1 120.32,266.42 266.42,266.42l395.33 0.01c64.46,339.47 197.67,666.05 399.63,962.55l-275.02 279.31c-103.13,103.13 -103.13,275.02 0,378.15l292.2 292.2c103.13,103.13 275.02,103.13 378.15,0l275.02 -279.31c296.5,201.96 623.08,335.17 962.55,395.33l0 395.33c0,146.1 120.32,266.42 266.42,266.42l412.53 0.01c146.1,0 266.42,-120.32 266.42,-266.42l0 -395.33c335.17,-64.46 666.05,-197.67 958.26,-399.63l283.61 283.61c103.13,103.13 275.02,103.13 378.15,0l292.2 -292.2c103.13,-103.13 103.13,-275.02 0,-378.15l-283.61 -283.61c197.67,-292.2 330.88,-618.78 391.04,-953.96l403.93 0c146.1,0 266.42,-120.32 266.42,-266.42l0 -412.52c-4.3,-154.7 -124.62,-275.02 -275.02,-275.02zm-1920.81 1452.42c-537.14,537.14 -1409.45,541.44 -1950.89,0 -537.14,-537.14 -541.44,-1409.45 0,-1950.89 537.14,-537.14 1409.45,-541.44 1950.89,0 537.14,537.14 537.14,1409.46 0,1950.89z"/>
    </g>
   </g>
  </g>
  <g id="_892540272">
  </g>
  <g id="_892535312">
  </g>
  <g id="_892536016">
  </g>
  <g id="_892536880">
  </g>
  <g id="_892537168">
  </g>
  <g id="_892541488">
  </g>
  <g id="_892542128">
  </g>
  <g id="_892534416">
  </g>
  <g id="_892538000">
  </g>
  <g id="_892543408">
  </g>
  <g id="_892524464">
  </g>
  <g id="_892542224">
  </g>
  <g id="_892542608">
  </g>
  <g id="_892540496">
  </g>
  <g id="_892537584">
  </g>
 </g>
</svg>
